<svg width="520" height="337" viewBox="0 0 520 337" fill="none" xmlns="http://www.w3.org/2000/svg">
<path d="M474.295 336.003L459.443 291.204C459.443 291.204 475.779 307.533 475.779 320.931L472.847 289.948C472.847 289.948 481.224 301.252 480.387 318.418C479.549 335.585 474.295 336.003 474.295 336.003Z" fill="#174483"/>
<path d="M155.356 295.211L140.861 251.489C140.861 251.489 156.804 267.425 156.804 280.501L153.943 250.263C153.943 250.263 162.119 261.296 161.301 278.049C160.483 294.803 155.356 295.211 155.356 295.211Z" fill="#174483"/>
<path d="M381.591 315.387C381.616 344.149 324.546 335.302 254.679 335.362C184.812 335.422 128.605 344.367 128.58 315.606C128.555 286.844 185.604 280.539 255.472 280.479C325.339 280.419 381.567 286.626 381.591 315.387Z" fill="#174483"/>
<path d="M332.626 276.545H323.492L319.145 241.329H332.626V276.545Z" fill="#FFB7B7"/>
<path d="M315.953 273.936H334.584V285.023H305.876V284.009C305.876 281.337 306.938 278.775 308.828 276.887C310.718 274.998 313.281 273.936 315.953 273.936Z" fill="#2F2E41"/>
<path d="M399.765 328.522H390.631L386.284 293.306H399.765V328.522Z" fill="#FFB7B7"/>
<path d="M383.093 325.913H401.723V337H373.016V335.986C373.016 333.314 374.077 330.752 375.967 328.863C377.857 326.975 380.42 325.913 383.093 325.913Z" fill="#2F2E41"/>
<path d="M441.898 223.901C442.529 223.136 442.985 222.241 443.233 221.281C443.482 220.32 443.516 219.316 443.334 218.341C443.153 217.365 442.759 216.442 442.182 215.635C441.604 214.828 440.856 214.157 439.992 213.67L418.777 127.288L405.212 133.121L430.446 216.645C429.724 218.152 429.579 219.871 430.04 221.477C430.502 223.083 431.536 224.463 432.947 225.358C434.359 226.252 436.05 226.598 437.699 226.33C439.349 226.061 440.843 225.197 441.898 223.901Z" fill="#FFB7B7"/>
<path d="M425.352 49.3212C424.595 48.5301 423.673 47.9145 422.652 47.5178C421.632 47.1212 420.536 46.9531 419.443 47.0253C418.35 47.0976 417.287 47.4086 416.327 47.9362C415.367 48.4639 414.535 49.1955 413.889 50.0795L381.053 53.8475L386.048 66.5071L415.91 60.9207C417.468 61.9074 419.333 62.2887 421.153 61.9923C422.973 61.696 424.622 60.7426 425.785 59.3128C426.949 57.883 427.548 56.0762 427.468 54.2347C427.388 52.3932 426.635 50.6449 425.352 49.3212Z" fill="#FFB7B7"/>
<path d="M371.241 214.943L385.569 322.433L403.403 318.763C403.403 318.763 400.78 240.481 409.697 231.043C418.614 221.606 398.228 205.074 398.228 205.074L371.241 214.943Z" fill="#3F3D56"/>
<path d="M377.164 185.336L370.582 195.205C370.582 195.205 319.899 174.152 319.899 207.706C319.899 241.26 316.998 264.031 315.949 265.604C314.9 267.177 328.085 271.258 334.38 270.21C334.38 270.21 342.145 216.115 341.62 212.969C341.62 212.969 391.338 237.335 400.78 235.238C410.221 233.141 412.452 225.717 414.025 221.522C415.599 217.328 413.367 184.02 413.367 184.02L381.897 174.421L377.164 185.336Z" fill="#3F3D56"/>
<path d="M378.053 126.082L376.177 123.832C376.177 123.832 355.164 76.5733 363.419 63.821C371.674 51.0688 407.696 49.1935 408.822 49.9436C409.948 50.6937 406.133 60.4329 408.76 64.9337C408.76 64.9337 380.855 70.981 378.979 71.7311C377.102 72.4812 393.437 100.202 393.437 100.202L391.561 117.08L378.053 126.082Z" fill="#A00C34"/>
<path d="M414.825 102.828C414.825 102.828 395.313 105.078 394.563 105.078C393.812 105.078 393.437 100.202 393.437 100.202L376.176 123.832C376.176 123.832 367.672 192.383 369.924 191.257C372.175 190.132 413.699 196.594 414.075 193.594C414.45 190.593 413.699 175.591 414.825 174.841C415.951 174.09 434.337 127.582 434.337 127.582C434.337 127.582 432.461 117.831 426.082 114.455C419.703 111.079 414.825 102.828 414.825 102.828Z" fill="#A00C34"/>
<path d="M428.334 121.206L434.337 127.582C434.337 127.582 443.258 200.85 438.38 203.1C433.502 205.351 423.899 205.074 423.899 205.074L414.45 170.34L428.334 121.206Z" fill="#A00C34"/>
<path d="M396.075 98.188C405.614 98.188 413.346 90.4589 413.346 80.9245C413.346 71.3902 405.614 63.6611 396.075 63.6611C386.537 63.6611 378.804 71.3902 378.804 80.9245C378.804 90.4589 386.537 98.188 396.075 98.188Z" fill="#FFB7B7"/>
<path d="M392.023 83.6183C391.789 80.0362 387.268 79.9135 383.677 79.8796C380.086 79.8456 375.793 79.9738 373.761 77.014C372.418 75.0579 372.674 72.3424 373.784 70.2453C374.893 68.1481 376.718 66.5352 378.513 64.9835C383.148 60.9774 387.925 57.0031 393.489 54.439C399.054 51.8748 405.575 50.8388 411.346 52.8971C418.435 55.4256 428.018 68.4414 428.846 75.9194C429.673 83.3975 426.683 91.0207 421.643 96.6088C416.603 102.197 405.068 99.9422 397.808 101.93C402.222 95.6866 399.313 84.3419 392.243 81.4263L392.023 83.6183Z" fill="#2F2E41"/>
<path d="M238.095 306.923C260.994 306.923 279.556 288.368 279.556 265.48C279.556 242.592 260.994 224.037 238.095 224.037C215.197 224.037 196.634 242.592 196.634 265.48C196.634 288.368 215.197 306.923 238.095 306.923Z" fill="white"/>
<path d="M210.407 221.092C204.66 221.093 199.037 219.428 194.218 216.301C189.398 213.173 185.589 208.716 183.251 203.469L117.46 55.3729C115.281 50.4672 114.128 45.1679 114.073 39.8005C114.018 34.4332 115.062 29.1113 117.14 24.162C119.218 19.2127 122.287 14.7406 126.158 11.0204C130.029 7.30031 134.621 4.41081 139.65 2.52955C144.679 0.648288 150.041 -0.184993 155.404 0.0809352C160.767 0.346863 166.02 1.70638 170.838 4.07591C175.656 6.44545 179.939 9.77495 183.423 13.8597C186.907 17.9445 189.518 22.6983 191.096 27.8289L238.737 182.715C240.101 187.148 240.405 191.84 239.626 196.412C238.847 200.984 237.006 205.311 234.251 209.043C231.496 212.775 227.904 215.809 223.763 217.902C219.621 219.995 215.047 221.087 210.407 221.092H210.407Z" fill="white"/>
</svg>
