<svg width="1440" height="2745" viewBox="0 0 1440 2745" fill="none" xmlns="http://www.w3.org/2000/svg">
<path fill-rule="evenodd" clip-rule="evenodd" d="M0 450.067L60 421.45C120 394.134 240 336.9 360 327.794C480 318.689 600 356.411 720 347.306C840 336.9 960 280.967 1080 215.928C1200 149.589 1320 75.4447 1380 37.7224L1440 0V506H1380C1320 506 1200 506 1080 506C960 506 840 506 720 506C600 506 480 506 360 506C240 506 120 506 60 506H0V450.067Z" fill="#206CD8"/>
<rect y="496" width="1440" height="2249" fill="#206CD8"/>
</svg>
