<svg width="700" height="1107" viewBox="0 0 700 1107" fill="none" xmlns="http://www.w3.org/2000/svg">
<path fill-rule="evenodd" clip-rule="evenodd" d="M0 181.502L29.1667 169.962C58.3333 158.946 116.667 135.864 175 132.192C233.333 128.52 291.667 143.733 350 140.061C408.333 135.864 466.667 113.308 525 87.0792C583.333 60.3259 641.667 30.4253 670.833 15.2126L700 0V204.059H670.833C641.667 204.059 583.333 204.059 525 204.059C466.667 204.059 408.333 204.059 350 204.059C291.667 204.059 233.333 204.059 175 204.059C116.667 204.059 58.3333 204.059 29.1667 204.059H0V181.502Z" fill="#206CD8"/>
<rect y="200.026" width="700" height="906.974" fill="#206CD8"/>
</svg>
