<svg width="2036" height="2745" viewBox="0 0 2036 2745" fill="none" xmlns="http://www.w3.org/2000/svg">
<path fill-rule="evenodd" clip-rule="evenodd" d="M0 450.067L84.8333 421.45C169.667 394.134 339.333 336.9 509 327.794C678.667 318.689 848.333 356.411 1018 347.306C1187.67 336.9 1357.33 280.967 1527 215.928C1696.67 149.589 1866.33 75.4447 1951.17 37.7224L2036 0V506H1951.17C1866.33 506 1696.67 506 1527 506C1357.33 506 1187.67 506 1018 506C848.333 506 678.667 506 509 506C339.333 506 169.667 506 84.8333 506H0V450.067Z" fill="#206CD8"/>
<rect y="496" width="2036" height="2249" fill="#206CD8"/>
</svg>
