<svg width="880" height="331" viewBox="0 0 880 331" fill="none" xmlns="http://www.w3.org/2000/svg">
<path d="M79.721 288.518C68.1161 297.134 64.8271 312.294 64.8271 312.294C64.8271 312.294 80.3534 313.485 91.9583 304.868C103.563 296.252 106.852 281.092 106.852 281.092C106.852 281.092 91.3258 279.902 79.721 288.518Z" fill="#F1F1F1"/>
<path d="M84.555 292.563C78.9776 305.867 65.0091 312.722 65.0091 312.722C65.0091 312.722 60.0834 298.009 65.6608 284.705C71.2382 271.402 85.2067 264.546 85.2067 264.546C85.2067 264.546 90.1324 279.26 84.555 292.563Z" fill="#F1F1F1"/>
<path d="M418.437 254.105C417.204 245.833 416.878 237.451 417.465 229.108L418.437 215.301C413.084 225.91 414.293 239.873 418.437 254.105V254.105Z" fill="#CACACA"/>
<path d="M422.611 256.415C422.017 251.479 421.861 246.5 422.143 241.536L422.611 233.317C420.035 239.632 420.617 247.944 422.611 256.415Z" fill="#CACACA"/>
<path d="M441.166 266.579V271.199C441.164 271.566 441.017 271.917 440.756 272.177C440.496 272.436 440.143 272.583 439.774 272.585H437.455C437.394 272.584 437.334 272.596 437.277 272.619C437.221 272.642 437.17 272.677 437.127 272.719C437.084 272.762 437.049 272.813 437.026 272.87C437.003 272.926 436.991 272.986 436.991 273.047V310.927C436.989 311.294 436.842 311.645 436.582 311.905C436.321 312.164 435.968 312.311 435.6 312.313H407.307C406.938 312.313 406.585 312.167 406.324 311.907C406.063 311.647 405.916 311.295 405.916 310.927V273.047C405.916 272.924 405.867 272.807 405.78 272.72C405.693 272.634 405.575 272.585 405.452 272.585H402.669C402.3 272.584 401.947 272.438 401.686 272.178C401.425 271.919 401.278 271.566 401.278 271.199V266.579C401.278 266.397 401.313 266.217 401.383 266.049C401.453 265.88 401.556 265.727 401.685 265.599C401.814 265.47 401.968 265.368 402.137 265.298C402.305 265.229 402.486 265.193 402.669 265.193H439.774C440.143 265.194 440.496 265.341 440.757 265.6C441.018 265.86 441.165 266.212 441.166 266.579Z" fill="#F2F2F2"/>
<path d="M437.033 273.555H405.958V274.941H437.033V273.555Z" fill="#E6E6E6"/>
<path d="M436.991 293.948C426.593 298.234 416.081 298.281 405.452 293.948V284.184C415.684 280.761 426.759 280.761 436.991 284.184V293.948Z" fill="#E6E6E6"/>
<path d="M262.81 144.664C286.023 144.664 304.841 125.922 304.841 102.801C304.841 79.6807 286.023 60.9378 262.81 60.9378C239.596 60.9378 220.778 79.6807 220.778 102.801C220.778 125.922 239.596 144.664 262.81 144.664Z" fill="#FEB8B8"/>
<path d="M302.068 66.685C295.784 56.5215 285.947 49.0324 274.452 45.6593L269.292 49.4097V44.5399C266.531 44.119 263.737 43.9569 260.946 44.0556L256.494 48.0676V44.389C249.902 45.2048 243.552 47.372 237.844 50.7539C232.135 54.1358 227.192 58.6591 223.326 64.0386C213.659 77.9201 212.027 97.2324 221.535 111.225C224.146 103.235 227.314 95.7385 229.925 87.7494C231.976 88.0279 234.056 88.038 236.11 87.7793L239.285 80.3986L240.173 87.4669C250.016 86.613 264.616 84.7374 273.948 83.0192L273.04 77.5965L278.469 82.1024C281.328 81.4471 283.026 80.8522 282.885 80.3979C289.826 91.5418 298.319 98.6594 305.259 109.803C307.895 94.0897 310.929 81.0241 302.068 66.685Z" fill="#2F2E41"/>
<path d="M353.208 210.454C351.762 201.793 350.271 192.967 346.23 185.165C343.574 180.054 339.358 175.185 333.674 174.174C332.555 174.075 331.455 173.821 330.405 173.42C328.74 172.621 306.361 159.897 302.804 157.681C299.75 155.778 294.928 152.256 292.498 152.256C290.052 152.202 280.674 154.376 244.073 151.526C244.073 151.526 234.019 155.474 226.238 160.26C226.12 160.183 188.25 180.438 186.827 180.384C184.132 180.271 181.628 181.99 180.083 184.153C178.539 186.317 177.815 188.996 177.056 191.586C185.328 209.933 192.896 228.303 201.168 246.65C201.556 247.341 201.761 248.119 201.767 248.91C201.6 249.731 201.248 250.504 200.737 251.17C196.681 257.66 196.81 265.824 197.253 273.452C197.696 281.08 198.245 289.138 194.822 295.976C193.891 297.853 192.68 299.571 191.795 301.448C189.721 305.7 188.972 319.298 190.183 323.866L341.926 328.196C338.664 319.263 353.208 210.454 353.208 210.454Z" fill="#A00C34"/>
<path d="M163.939 247.464C163.637 249.645 163.606 251.856 163.849 254.045L166.024 285.154C166.228 288.086 166.429 291.011 166.705 293.935C167.227 299.611 168.006 305.242 168.974 310.865C168.996 311.664 169.335 312.421 169.916 312.97C170.498 313.52 171.275 313.817 172.077 313.797C181.65 315.815 191.542 315.734 201.312 315.185C216.222 314.356 254.366 312.788 256.697 309.772C259.027 306.757 257.669 301.88 254.631 299.442C251.592 297.004 201.255 291.06 201.255 291.06C201.747 287.178 203.23 283.522 204.638 279.836C207.166 273.299 209.527 266.547 209.573 259.544C209.618 252.541 206.969 245.178 201.209 241.166C196.472 237.873 190.372 237.262 184.598 237.397C180.397 237.517 173.14 236.515 169.303 238.151C166.267 239.483 164.507 244.503 163.939 247.464Z" fill="#FBBEBE"/>
<path d="M176.618 192.144C175.881 192.913 175.31 193.824 174.939 194.82C168.821 208.552 165.208 223.26 164.268 238.254C164.284 238.985 164.115 239.708 163.776 240.357C163.441 240.788 163.069 241.189 162.663 241.555C162.309 241.973 162.042 242.456 161.875 242.977C161.709 243.497 161.647 244.046 161.694 244.59C161.74 245.135 161.894 245.665 162.146 246.15C162.398 246.635 162.743 247.067 163.163 247.419C163.232 247.477 163.302 247.532 163.375 247.586C164.623 245.245 167.612 244.48 170.27 244.277C182.991 243.274 195.418 249.169 208.178 248.724C207.278 245.626 205.983 242.649 205.249 239.513C202.002 225.591 210.1 210.432 205.135 197.022C204.144 194.339 202.487 191.7 199.876 190.524C198.795 190.09 197.663 189.792 196.508 189.637C193.284 189.056 186.865 186.576 183.748 187.571C182.598 187.941 182.144 189.018 181.19 189.67C179.741 190.591 177.819 190.93 176.618 192.144Z" fill="#A00C34"/>
<path d="M353.298 238.151C349.461 236.515 342.203 237.517 338.003 237.397C332.229 237.262 326.129 237.873 321.391 241.166C315.632 245.178 312.983 252.541 313.028 259.544C313.074 266.547 315.435 273.299 317.963 279.836C319.371 283.522 320.854 287.178 321.346 291.06C321.346 291.06 271.009 297.004 267.97 299.442C264.932 301.88 263.574 306.757 265.904 309.772C268.234 312.788 340.951 315.815 350.524 313.797C351.326 313.817 352.103 313.52 352.685 312.97C353.266 312.421 353.605 311.663 353.627 310.865C354.595 305.242 355.374 299.611 355.896 293.935C356.172 291.011 356.373 288.086 356.577 285.154L358.752 254.045C358.995 251.856 358.964 249.645 358.662 247.464C358.094 244.503 356.334 239.483 353.298 238.151Z" fill="#FBBEBE"/>
<path d="M341.411 189.67C340.458 189.018 340.004 187.941 338.853 187.571C335.736 186.576 329.318 189.056 326.093 189.637C324.938 189.792 323.807 190.09 322.726 190.524C320.115 191.7 318.458 194.339 317.466 197.022C312.501 210.432 320.599 225.591 317.353 239.513C316.618 242.649 315.324 245.626 314.423 248.724C327.183 249.169 339.61 243.274 352.332 244.277C354.989 244.48 357.978 245.245 359.227 247.586C359.299 247.532 359.37 247.477 359.439 247.419C359.858 247.067 360.204 246.635 360.456 246.15C360.708 245.665 360.861 245.135 360.908 244.59C360.954 244.046 360.892 243.497 360.726 242.977C360.56 242.456 360.292 241.973 359.938 241.555C359.533 241.189 359.16 240.788 358.826 240.357C358.487 239.708 358.317 238.985 358.334 238.254C357.394 223.26 353.78 208.552 347.663 194.82C347.292 193.824 346.72 192.913 345.983 192.144C344.782 190.93 342.86 190.591 341.411 189.67Z" fill="#A00C34"/>
<path d="M250.361 315.283C256.627 315.283 261.706 310.224 261.706 303.984C261.706 297.744 256.627 292.685 250.361 292.685C244.096 292.685 239.017 297.744 239.017 303.984C239.017 310.224 244.096 315.283 250.361 315.283Z" fill="#FBBEBE"/>
<path d="M275.481 315.283C281.746 315.283 286.825 310.224 286.825 303.984C286.825 297.744 281.746 292.685 275.481 292.685C269.216 292.685 264.137 297.744 264.137 303.984C264.137 310.224 269.216 315.283 275.481 315.283Z" fill="#FBBEBE"/>
<path d="M345.507 329.445H189.653C187.833 329.443 186.089 328.722 184.802 327.44C183.516 326.159 182.792 324.421 182.79 322.609V228.435C182.792 226.623 183.516 224.886 184.802 223.604C186.089 222.323 187.833 221.602 189.653 221.6H345.507C347.326 221.602 349.071 222.323 350.357 223.604C351.644 224.886 352.368 226.623 352.37 228.435V322.609C352.368 324.421 351.644 326.159 350.357 327.44C349.071 328.722 347.326 329.443 345.507 329.445Z" fill="#3F3D56"/>
<path d="M267.202 280.045C269.71 280.045 271.743 278.02 271.743 275.522C271.743 273.024 269.71 270.999 267.202 270.999C264.694 270.999 262.661 273.024 262.661 275.522C262.661 278.02 264.694 280.045 267.202 280.045Z" fill="white"/>
<path d="M522.601 310.449H0V326.445H30.9113V330.163H491.702V326.445H522.601V310.449Z" fill="#C5C5C5"/>
<path d="M224.159 118.404C217.406 118.404 211.931 112.509 211.931 105.235V98.651C211.931 91.3779 217.406 85.482 224.159 85.482V118.404H224.159Z" fill="#A00C34"/>
<path d="M302.21 85.482C308.964 85.482 314.438 91.3779 314.438 98.651V105.235C314.438 112.509 308.964 118.404 302.21 118.404V85.482Z" fill="#A00C34"/>
<path d="M308.618 99.6857H306.677C306.677 73.1871 286.659 51.6288 262.053 51.6288C237.447 51.6288 217.428 73.1871 217.428 99.6857H215.488C215.488 72.0349 236.377 49.5394 262.053 49.5394C287.729 49.5394 308.618 72.0349 308.618 99.6857Z" fill="#A00C34"/>
<path d="M424.935 1.17128C431.763 1.17128 437.006 2.90736 440.664 6.37951C444.322 9.85166 446.151 14.8373 446.151 21.3365C446.151 28.9485 444.102 34.7799 440.006 38.8308C435.909 42.8816 430.056 44.907 422.448 44.907C420.156 44.907 417.4 44.8625 414.181 44.7735C411.011 44.6845 408.28 44.5732 405.988 44.4396L406.5 31.6194L405.988 1.43837L424.935 1.17128ZM424.204 37.896C431.958 37.896 435.836 33.0661 435.836 23.4064C435.836 18.1537 434.885 14.3477 432.983 11.9884C431.129 9.58457 428.203 8.38267 424.204 8.38267C421.619 8.38267 418.863 8.49396 415.937 8.71653L415.498 30.8181L415.718 37.4286C419.132 37.7402 421.96 37.896 424.204 37.896Z" fill="black"/>
<path d="M463.079 30.8181L463.518 44.4396H453.568L454.08 31.6194L453.568 1.43837H463.664L463.079 30.8181Z" fill="black"/>
<path d="M504.772 36.9612L505.358 37.6956L504.699 44.4396H475.144L475.656 31.6194L475.144 1.43837H504.992L505.577 2.17286L504.845 8.91685L493.579 8.58299L485.093 8.64976L484.874 18.9994L492.994 19.133L500.675 18.9327L501.261 19.6004L500.602 26.3444L492.262 26.1441L484.727 26.2108L484.654 30.8181L484.874 37.295L493.14 37.3618L504.772 36.9612Z" fill="black"/>
<path d="M532.359 0.904193C537.48 0.904193 542.089 1.77223 546.186 3.5083L544.064 11.6545L543.113 11.7881C540.723 10.5416 538.578 9.65134 536.675 9.11716C534.822 8.53847 532.823 8.24913 530.677 8.24913C526.336 8.24913 523.166 9.42877 521.166 11.7881C519.167 14.1473 518.167 18.0201 518.167 23.4064C518.167 26.9676 518.581 29.7943 519.41 31.8865C520.288 33.9787 521.63 35.5144 523.434 36.4937C525.239 37.4286 527.628 37.896 530.603 37.896C531.628 37.896 532.579 37.8292 533.457 37.6956C534.383 37.5621 535.505 37.3173 536.822 36.9612L536.968 33.2887L536.822 26.4779L545.966 25.877L545.747 31.8865L545.966 42.3697C540.114 44.1503 534.725 45.0406 529.799 45.0406C522.483 45.0406 516.972 43.2155 513.265 39.5653C509.607 35.9151 507.779 30.6846 507.779 23.8738C507.779 16.4398 509.9 10.7642 514.143 6.84691C518.435 2.8851 524.507 0.904193 532.359 0.904193Z" fill="black"/>
<path d="M573.814 0.837418C580.447 0.837418 585.543 2.68478 589.104 6.37951C592.713 10.0297 594.517 15.2379 594.517 22.0042C594.517 29.3936 592.566 35.0915 588.665 39.0979C584.763 43.1042 579.252 45.1074 572.131 45.1074C565.547 45.1074 560.451 43.2377 556.842 39.4985C553.281 35.7147 551.501 30.373 551.501 23.4732C551.501 16.2173 553.428 10.6307 557.281 6.71337C561.182 2.79607 566.693 0.837418 573.814 0.837418ZM572.936 8.11558C569.034 8.11558 566.206 9.22845 564.45 11.4542C562.694 13.6799 561.816 17.3079 561.816 22.3381C561.816 28.0805 562.67 32.1758 564.377 34.6241C566.132 37.0724 569.01 38.2966 573.009 38.2966C576.911 38.2966 579.74 37.1837 581.495 34.958C583.251 32.6877 584.129 28.993 584.129 23.8738C584.129 18.2204 583.251 14.1918 581.495 11.7881C579.788 9.33974 576.935 8.11558 572.936 8.11558Z" fill="black"/>
<path d="M637.968 27.346C641.773 32.8658 645.552 37.8514 649.308 42.3029L649.161 43.3045C645.991 44.3283 642.748 44.9293 639.432 45.1074L638.407 44.3729C634.896 38.853 632.043 34.0454 629.848 29.9501H622.752V30.8181L623.191 44.4396H613.241L613.754 31.6194L613.241 1.43837L631.311 1.3716C636.237 1.3716 640.041 2.48447 642.724 4.7102C645.406 6.89143 646.747 10.0297 646.747 14.1251C646.747 16.885 645.967 19.4223 644.406 21.7371C642.894 24.0074 640.748 25.877 637.968 27.346ZM622.898 22.939L630.141 23.2061C634.286 21.9152 636.359 19.1775 636.359 14.9931C636.359 12.7229 635.676 11.0313 634.311 9.91843C632.994 8.76105 630.945 8.13784 628.165 8.04881L623.191 8.3159L622.898 22.939Z" fill="black"/>
<path d="M674.333 0.837418C680.966 0.837418 686.062 2.68478 689.623 6.37951C693.232 10.0297 695.036 15.2379 695.036 22.0042C695.036 29.3936 693.086 35.0915 689.184 39.0979C685.282 43.1042 679.771 45.1074 672.65 45.1074C666.066 45.1074 660.97 43.2377 657.361 39.4985C653.8 35.7147 652.02 30.373 652.02 23.4732C652.02 16.2173 653.947 10.6307 657.8 6.71337C661.701 2.79607 667.212 0.837418 674.333 0.837418ZM673.455 8.11558C669.553 8.11558 666.725 9.22845 664.969 11.4542C663.213 13.6799 662.335 17.3079 662.335 22.3381C662.335 28.0805 663.189 32.1758 664.896 34.6241C666.652 37.0724 669.529 38.2966 673.528 38.2966C677.43 38.2966 680.259 37.1837 682.014 34.958C683.77 32.6877 684.648 28.993 684.648 23.8738C684.648 18.2204 683.77 14.1918 682.014 11.7881C680.307 9.33974 677.454 8.11558 673.455 8.11558Z" fill="black"/>
<path d="M751.775 44.4396H742.996L742.265 31.4191L740.582 14.8596H739.851L729.316 39.8991H721.635L712.051 14.8596H711.393L709.564 30.551L708.54 44.4396H700.2L704.955 1.43837H716.367L718.269 7.78172L725.731 28.1472H726.39L734.218 7.78172L736.339 1.43837H747.532L751.775 44.4396Z" fill="black"/>
<path d="M790.612 36.9612L791.197 37.6956L790.539 44.4396H760.984L761.496 31.6194L760.984 1.43837H790.832L791.417 2.17286L790.685 8.91685L779.419 8.58299L770.933 8.64976L770.714 18.9994L778.834 19.133L786.515 18.9327L787.101 19.6004L786.442 26.3444L778.102 26.1441L770.567 26.2108L770.494 30.8181L770.714 37.295L778.98 37.3618L790.612 36.9612Z" fill="black"/>
<path d="M822.932 27.346C826.736 32.8658 830.516 37.8514 834.271 42.3029L834.125 43.3045C830.955 44.3283 827.712 44.9293 824.395 45.1074L823.371 44.3729C819.86 38.853 817.006 34.0454 814.812 29.9501H807.715V30.8181L808.154 44.4396H798.205L798.717 31.6194L798.205 1.43837L816.275 1.3716C821.201 1.3716 825.005 2.48447 827.687 4.7102C830.37 6.89143 831.711 10.0297 831.711 14.1251C831.711 16.885 830.931 19.4223 829.37 21.7371C827.858 24.0074 825.712 25.877 822.932 27.346ZM807.862 22.939L815.104 23.2061C819.25 21.9152 821.323 19.1775 821.323 14.9931C821.323 12.7229 820.64 11.0313 819.274 9.91843C817.957 8.76105 815.909 8.13784 813.129 8.04881L808.154 8.3159L807.862 22.939Z" fill="black"/>
<path d="M859.297 0.837418C865.93 0.837418 871.026 2.68478 874.586 6.37951C878.196 10.0297 880 15.2379 880 22.0042C880 29.3936 878.049 35.0915 874.148 39.0979C870.246 43.1042 864.735 45.1074 857.614 45.1074C851.03 45.1074 845.933 43.2377 842.324 39.4985C838.764 35.7147 836.984 30.373 836.984 23.4732C836.984 16.2173 838.91 10.6307 842.763 6.71337C846.665 2.79607 852.176 0.837418 859.297 0.837418ZM858.419 8.11558C854.517 8.11558 851.688 9.22845 849.933 11.4542C848.177 13.6799 847.299 17.3079 847.299 22.3381C847.299 28.0805 848.153 32.1758 849.859 34.6241C851.615 37.0724 854.493 38.2966 858.492 38.2966C862.394 38.2966 865.222 37.1837 866.978 34.958C868.734 32.6877 869.612 28.993 869.612 23.8738C869.612 18.2204 868.734 14.1918 866.978 11.7881C865.271 9.33974 862.418 8.11558 858.419 8.11558Z" fill="black"/>
</svg>
