<svg width="880" height="331" viewBox="0 0 880 331" fill="none" xmlns="http://www.w3.org/2000/svg">
<path d="M79.721 288.518C68.1161 297.134 64.8271 312.294 64.8271 312.294C64.8271 312.294 80.3534 313.485 91.9583 304.868C103.563 296.252 106.852 281.092 106.852 281.092C106.852 281.092 91.3258 279.902 79.721 288.518Z" fill="#F1F1F1"/>
<path d="M84.555 292.563C78.9776 305.867 65.0091 312.722 65.0091 312.722C65.0091 312.722 60.0834 298.009 65.6608 284.705C71.2382 271.402 85.2067 264.546 85.2067 264.546C85.2067 264.546 90.1324 279.26 84.555 292.563Z" fill="#F1F1F1"/>
<path d="M418.437 254.105C417.204 245.833 416.878 237.451 417.465 229.108L418.437 215.301C413.084 225.91 414.293 239.873 418.437 254.105V254.105Z" fill="#CACACA"/>
<path d="M422.611 256.415C422.017 251.479 421.861 246.5 422.143 241.536L422.611 233.317C420.035 239.632 420.617 247.944 422.611 256.415Z" fill="#CACACA"/>
<path d="M441.166 266.579V271.199C441.164 271.566 441.017 271.917 440.756 272.177C440.496 272.436 440.143 272.583 439.774 272.585H437.455C437.394 272.584 437.334 272.596 437.277 272.619C437.221 272.642 437.17 272.677 437.127 272.719C437.084 272.762 437.049 272.813 437.026 272.87C437.003 272.926 436.991 272.986 436.991 273.047V310.927C436.989 311.294 436.842 311.645 436.582 311.905C436.321 312.164 435.968 312.311 435.6 312.313H407.307C406.938 312.313 406.585 312.167 406.324 311.907C406.063 311.647 405.916 311.295 405.916 310.927V273.047C405.916 272.924 405.867 272.807 405.78 272.72C405.693 272.634 405.575 272.585 405.452 272.585H402.669C402.3 272.584 401.947 272.438 401.686 272.178C401.425 271.919 401.278 271.566 401.278 271.199V266.579C401.278 266.397 401.313 266.217 401.383 266.049C401.453 265.88 401.556 265.727 401.685 265.599C401.814 265.47 401.968 265.368 402.137 265.298C402.305 265.229 402.486 265.193 402.669 265.193H439.774C440.143 265.194 440.496 265.341 440.757 265.6C441.018 265.86 441.165 266.212 441.166 266.579Z" fill="#F2F2F2"/>
<path d="M437.033 273.555H405.958V274.941H437.033V273.555Z" fill="#E6E6E6"/>
<path d="M436.991 293.948C426.593 298.234 416.081 298.281 405.452 293.948V284.184C415.684 280.761 426.759 280.761 436.991 284.184V293.948Z" fill="#E6E6E6"/>
<path d="M262.81 144.664C286.023 144.664 304.841 125.922 304.841 102.801C304.841 79.6807 286.023 60.9378 262.81 60.9378C239.596 60.9378 220.778 79.6807 220.778 102.801C220.778 125.922 239.596 144.664 262.81 144.664Z" fill="#FEB8B8"/>
<path d="M302.068 66.685C295.784 56.5215 285.947 49.0324 274.452 45.6593L269.292 49.4097V44.5399C266.531 44.119 263.737 43.9569 260.946 44.0556L256.494 48.0676V44.389C249.902 45.2048 243.552 47.372 237.844 50.7539C232.135 54.1358 227.192 58.6591 223.326 64.0386C213.659 77.9201 212.027 97.2324 221.535 111.225C224.146 103.235 227.314 95.7385 229.925 87.7494C231.976 88.0279 234.056 88.038 236.11 87.7793L239.285 80.3986L240.173 87.4669C250.016 86.613 264.616 84.7374 273.948 83.0192L273.04 77.5965L278.469 82.1024C281.328 81.4471 283.026 80.8522 282.885 80.3979C289.826 91.5418 298.319 98.6594 305.259 109.803C307.895 94.0897 310.929 81.0241 302.068 66.685Z" fill="#2F2E41"/>
<path d="M353.208 210.454C351.762 201.793 350.271 192.967 346.23 185.165C343.574 180.054 339.358 175.185 333.674 174.174C332.555 174.075 331.455 173.821 330.405 173.42C328.74 172.621 306.361 159.897 302.804 157.681C299.75 155.778 294.928 152.256 292.498 152.256C290.052 152.202 280.674 154.376 244.073 151.526C244.073 151.526 234.019 155.474 226.238 160.26C226.12 160.183 188.25 180.438 186.827 180.384C184.132 180.271 181.628 181.99 180.083 184.153C178.539 186.317 177.815 188.996 177.056 191.586C185.328 209.933 192.896 228.303 201.168 246.65C201.556 247.341 201.761 248.119 201.767 248.91C201.6 249.731 201.248 250.504 200.737 251.17C196.681 257.66 196.81 265.824 197.253 273.452C197.696 281.08 198.245 289.138 194.822 295.976C193.891 297.853 192.68 299.571 191.795 301.448C189.721 305.7 188.972 319.298 190.183 323.866L341.926 328.196C338.664 319.263 353.208 210.454 353.208 210.454Z" fill="#A00C34"/>
<path d="M163.939 247.464C163.637 249.645 163.606 251.856 163.849 254.045L166.024 285.154C166.228 288.086 166.429 291.011 166.705 293.935C167.227 299.611 168.006 305.242 168.974 310.865C168.996 311.664 169.335 312.421 169.916 312.97C170.498 313.52 171.275 313.817 172.077 313.797C181.65 315.815 191.542 315.734 201.312 315.185C216.222 314.356 254.366 312.788 256.697 309.772C259.027 306.757 257.669 301.88 254.631 299.442C251.592 297.004 201.255 291.06 201.255 291.06C201.747 287.178 203.23 283.522 204.638 279.836C207.166 273.299 209.527 266.547 209.573 259.544C209.618 252.541 206.969 245.178 201.209 241.166C196.472 237.873 190.372 237.262 184.598 237.397C180.397 237.517 173.14 236.515 169.303 238.151C166.267 239.483 164.507 244.503 163.939 247.464Z" fill="#FBBEBE"/>
<path d="M176.618 192.144C175.881 192.913 175.31 193.824 174.939 194.82C168.821 208.552 165.208 223.26 164.268 238.254C164.284 238.985 164.115 239.708 163.776 240.357C163.441 240.788 163.069 241.189 162.663 241.555C162.309 241.973 162.042 242.456 161.875 242.977C161.709 243.497 161.647 244.046 161.694 244.59C161.74 245.135 161.894 245.665 162.146 246.15C162.398 246.635 162.743 247.067 163.163 247.419C163.232 247.477 163.302 247.532 163.375 247.586C164.623 245.245 167.612 244.48 170.27 244.277C182.991 243.274 195.418 249.169 208.178 248.724C207.278 245.626 205.983 242.649 205.249 239.513C202.002 225.591 210.1 210.432 205.135 197.022C204.144 194.339 202.487 191.7 199.876 190.524C198.795 190.09 197.663 189.792 196.508 189.637C193.284 189.056 186.865 186.576 183.748 187.571C182.598 187.941 182.144 189.018 181.19 189.67C179.741 190.591 177.819 190.93 176.618 192.144Z" fill="#A00C34"/>
<path d="M353.298 238.151C349.461 236.515 342.203 237.517 338.003 237.397C332.229 237.262 326.129 237.873 321.391 241.166C315.632 245.178 312.983 252.541 313.028 259.544C313.074 266.547 315.435 273.299 317.963 279.836C319.371 283.522 320.854 287.178 321.346 291.06C321.346 291.06 271.009 297.004 267.97 299.442C264.932 301.88 263.574 306.757 265.904 309.772C268.234 312.788 340.951 315.815 350.524 313.797C351.326 313.817 352.103 313.52 352.685 312.97C353.266 312.421 353.605 311.663 353.627 310.865C354.595 305.242 355.374 299.611 355.896 293.935C356.172 291.011 356.373 288.086 356.577 285.154L358.752 254.045C358.995 251.856 358.964 249.645 358.662 247.464C358.094 244.503 356.334 239.483 353.298 238.151Z" fill="#FBBEBE"/>
<path d="M341.411 189.67C340.458 189.018 340.004 187.941 338.853 187.571C335.736 186.576 329.318 189.056 326.093 189.637C324.938 189.792 323.807 190.09 322.726 190.524C320.115 191.7 318.458 194.339 317.466 197.022C312.501 210.432 320.599 225.591 317.353 239.513C316.618 242.649 315.324 245.626 314.423 248.724C327.183 249.169 339.61 243.274 352.332 244.277C354.989 244.48 357.978 245.245 359.227 247.586C359.299 247.532 359.37 247.477 359.439 247.419C359.858 247.067 360.204 246.635 360.456 246.15C360.708 245.665 360.861 245.135 360.908 244.59C360.954 244.046 360.892 243.497 360.726 242.977C360.56 242.456 360.292 241.973 359.938 241.555C359.533 241.189 359.16 240.788 358.826 240.357C358.487 239.708 358.317 238.985 358.334 238.254C357.394 223.26 353.78 208.552 347.663 194.82C347.292 193.824 346.72 192.913 345.983 192.144C344.782 190.93 342.86 190.591 341.411 189.67Z" fill="#A00C34"/>
<path d="M250.361 315.283C256.627 315.283 261.706 310.224 261.706 303.984C261.706 297.744 256.627 292.685 250.361 292.685C244.096 292.685 239.017 297.744 239.017 303.984C239.017 310.224 244.096 315.283 250.361 315.283Z" fill="#FBBEBE"/>
<path d="M275.481 315.283C281.746 315.283 286.825 310.224 286.825 303.984C286.825 297.744 281.746 292.685 275.481 292.685C269.216 292.685 264.137 297.744 264.137 303.984C264.137 310.224 269.216 315.283 275.481 315.283Z" fill="#FBBEBE"/>
<path d="M345.507 329.445H189.653C187.833 329.443 186.089 328.722 184.802 327.44C183.516 326.159 182.792 324.421 182.79 322.609V228.435C182.792 226.623 183.516 224.886 184.802 223.604C186.089 222.323 187.833 221.602 189.653 221.6H345.507C347.326 221.602 349.071 222.323 350.357 223.604C351.644 224.886 352.368 226.623 352.37 228.435V322.609C352.368 324.421 351.644 326.159 350.357 327.44C349.071 328.722 347.326 329.443 345.507 329.445Z" fill="#3F3D56"/>
<path d="M267.202 280.045C269.71 280.045 271.743 278.02 271.743 275.522C271.743 273.024 269.71 270.999 267.202 270.999C264.694 270.999 262.661 273.024 262.661 275.522C262.661 278.02 264.694 280.045 267.202 280.045Z" fill="white"/>
<path d="M522.601 310.449H0V326.445H30.9113V330.163H491.702V326.445H522.601V310.449Z" fill="#C5C5C5"/>
<path d="M224.159 118.404C217.406 118.404 211.931 112.509 211.931 105.235V98.651C211.931 91.3779 217.406 85.482 224.159 85.482V118.404H224.159Z" fill="#A00C34"/>
<path d="M302.21 85.482C308.964 85.482 314.438 91.3779 314.438 98.651V105.235C314.438 112.509 308.964 118.404 302.21 118.404V85.482Z" fill="#A00C34"/>
<path d="M308.618 99.6857H306.677C306.677 73.1871 286.659 51.6288 262.053 51.6288C237.447 51.6288 217.428 73.1871 217.428 99.6857H215.488C215.488 72.0349 236.377 49.5394 262.053 49.5394C287.729 49.5394 308.618 72.0349 308.618 99.6857Z" fill="#A00C34"/>
<path d="M424.935 1.17128C431.763 1.17128 437.006 2.90736 440.664 6.37951C444.322 9.85166 446.151 14.8373 446.151 21.3365C446.151 28.9485 444.102 34.7799 440.006 38.8308C435.909 42.8816 430.056 44.907 422.448 44.907C420.156 44.907 417.4 44.8625 414.181 44.7735C411.011 44.6845 408.28 44.5732 405.988 44.4396L406.5 31.6194L405.988 1.43837L424.935 1.17128ZM424.204 37.896C431.958 37.896 435.836 33.0661 435.836 23.4064C435.836 18.1537 434.885 14.3477 432.983 11.9884C431.129 9.58457 428.203 8.38267 424.204 8.38267C421.619 8.38267 418.863 8.49396 415.937 8.71653L415.498 30.8181L415.718 37.4286C419.132 37.7402 421.96 37.896 424.204 37.896Z" fill="black"/>
<path d="M463.079 30.8181L463.518 44.4396H453.568L454.08 31.6194L453.568 1.43837H463.664L463.079 30.8181Z" fill="black"/>
<path d="M504.772 36.9612L505.358 37.6956L504.699 44.4396H475.144L475.656 31.6194L475.144 1.43837H504.992L505.577 2.17286L504.845 8.91685L493.579 8.58299L485.093 8.64976L484.874 18.9994L492.994 19.133L500.675 18.9327L501.261 19.6004L500.602 26.3444L492.262 26.1441L484.727 26.2108L484.654 30.8181L484.874 37.295L493.14 37.3618L504.772 36.9612Z" fill="black"/>
<path d="M532.359 0.904193C537.48 0.904193 542.089 1.77223 546.186 3.5083L544.064 11.6545L543.113 11.7881C540.723 10.5416 538.578 9.65134 536.675 9.11716C534.822 8.53847 532.823 8.24913 530.677 8.24913C526.336 8.24913 523.166 9.42877 521.166 11.7881C519.167 14.1473 518.167 18.0201 518.167 23.4064C518.167 26.9676 518.581 29.7943 519.41 31.8865C520.288 33.9787 521.63 35.5144 523.434 36.4937C525.239 37.4286 527.628 37.896 530.603 37.896C531.628 37.896 532.579 37.8292 533.457 37.6956C534.383 37.5621 535.505 37.3173 536.822 36.9612L536.968 33.2887L536.822 26.4779L545.966 25.877L545.747 31.8865L545.966 42.3697C540.114 44.1503 534.725 45.0406 529.799 45.0406C522.483 45.0406 516.972 43.2155 513.265 39.5653C509.607 35.9151 507.779 30.6846 507.779 23.8738C507.779 16.4398 509.9 10.7642 514.143 6.84691C518.435 2.8851 524.507 0.904193 532.359 0.904193Z" fill="black"/>
<path d="M573.814 0.837418C580.447 0.837418 585.543 2.68478 589.104 6.37951C592.713 10.0297 594.517 15.2379 594.517 22.0042C594.517 29.3936 592.566 35.0915 588.665 39.0979C584.763 43.1042 579.252 45.1074 572.131 45.1074C565.547 45.1074 560.451 43.2377 556.842 39.4985C553.281 35.7147 551.501 30.373 551.501 23.4732C551.501 16.2173 553.428 10.6307 557.281 6.71337C561.182 2.79607 566.693 0.837418 573.814 0.837418ZM572.936 8.11558C569.034 8.11558 566.206 9.22845 564.45 11.4542C562.694 13.6799 561.816 17.3079 561.816 22.3381C561.816 28.0805 562.67 32.1758 564.377 34.6241C566.132 37.0724 569.01 38.2966 573.009 38.2966C576.911 38.2966 579.74 37.1837 581.495 34.958C583.251 32.6877 584.129 28.993 584.129 23.8738C584.129 18.2204 583.251 14.1918 581.495 11.7881C579.788 9.33974 576.935 8.11558 572.936 8.11558Z" fill="black"/>
<path d="M637.968 27.346C641.773 32.8658 645.552 37.8514 649.308 42.3029L649.161 43.3045C645.991 44.3283 642.748 44.9293 639.432 45.1074L638.407 44.3729C634.896 38.853 632.043 34.0454 629.848 29.9501H622.752V30.8181L623.191 44.4396H613.241L613.754 31.6194L613.241 1.43837L631.311 1.3716C636.237 1.3716 640.041 2.48447 642.724 4.7102C645.406 6.89143 646.747 10.0297 646.747 14.1251C646.747 16.885 645.967 19.4223 644.406 21.7371C642.894 24.0074 640.748 25.877 637.968 27.346ZM622.898 22.939L630.141 23.2061C634.286 21.9152 636.359 19.1775 636.359 14.9931C636.359 12.7229 635.676 11.0313 634.311 9.91843C632.994 8.76105 630.945 8.13784 628.165 8.04881L623.191 8.3159L622.898 22.939Z" fill="black"/>
<path d="M674.333 0.837418C680.966 0.837418 686.062 2.68478 689.623 6.37951C693.232 10.0297 695.036 15.2379 695.036 22.0042C695.036 29.3936 693.086 35.0915 689.184 39.0979C685.282 43.1042 679.771 45.1074 672.65 45.1074C666.066 45.1074 660.97 43.2377 657.361 39.4985C653.8 35.7147 652.02 30.373 652.02 23.4732C652.02 16.2173 653.947 10.6307 657.8 6.71337C661.701 2.79607 667.212 0.837418 674.333 0.837418ZM673.455 8.11558C669.553 8.11558 666.725 9.22845 664.969 11.4542C663.213 13.6799 662.335 17.3079 662.335 22.3381C662.335 28.0805 663.189 32.1758 664.896 34.6241C666.652 37.0724 669.529 38.2966 673.528 38.2966C677.43 38.2966 680.259 37.1837 682.014 34.958C683.77 32.6877 684.648 28.993 684.648 23.8738C684.648 18.2204 683.77 14.1918 682.014 11.7881C680.307 9.33974 677.454 8.11558 673.455 8.11558Z" fill="black"/>
<path d="M751.775 44.4396H742.996L742.265 31.4191L740.582 14.8596H739.851L729.316 39.8991H721.635L712.051 14.8596H711.393L709.564 30.551L708.54 44.4396H700.2L704.955 1.43837H716.367L718.269 7.78172L725.731 28.1472H726.39L734.218 7.78172L736.339 1.43837H747.532L751.775 44.4396Z" fill="black"/>
<path d="M790.612 36.9612L791.197 37.6956L790.539 44.4396H760.984L761.496 31.6194L760.984 1.43837H790.832L791.417 2.17286L790.685 8.91685L779.419 8.58299L770.933 8.64976L770.714 18.9994L778.834 19.133L786.515 18.9327L787.101 19.6004L786.442 26.3444L778.102 26.1441L770.567 26.2108L770.494 30.8181L770.714 37.295L778.98 37.3618L790.612 36.9612Z" fill="black"/>
<path d="M822.932 27.346C826.736 32.8658 830.516 37.8514 834.271 42.3029L834.125 43.3045C830.955 44.3283 827.712 44.9293 824.395 45.1074L823.371 44.3729C819.86 38.853 817.006 34.0454 814.812 29.9501H807.715V30.8181L808.154 44.4396H798.205L798.717 31.6194L798.205 1.43837L816.275 1.3716C821.201 1.3716 825.005 2.48447 827.687 4.7102C830.37 6.89143 831.711 10.0297 831.711 14.1251C831.711 16.885 830.931 19.4223 829.37 21.7371C827.858 24.0074 825.712 25.877 822.932 27.346ZM807.862 22.939L815.104 23.2061C819.25 21.9152 821.323 19.1775 821.323 14.9931C821.323 12.7229 820.64 11.0313 819.274 9.91843C817.957 8.76105 815.909 8.13784 813.129 8.04881L808.154 8.3159L807.862 22.939Z" fill="black"/>
<path d="M859.297 0.837418C865.93 0.837418 871.026 2.68478 874.586 6.37951C878.196 10.0297 880 15.2379 880 22.0042C880 29.3936 878.049 35.0915 874.148 39.0979C870.246 43.1042 864.735 45.1074 857.614 45.1074C851.03 45.1074 845.933 43.2377 842.324 39.4985C838.764 35.7147 836.984 30.373 836.984 23.4732C836.984 16.2173 838.91 10.6307 842.763 6.71337C846.665 2.79607 852.176 0.837418 859.297 0.837418ZM858.419 8.11558C854.517 8.11558 851.688 9.22845 849.933 11.4542C848.177 13.6799 847.299 17.3079 847.299 22.3381C847.299 28.0805 848.153 32.1758 849.859 34.6241C851.615 37.0724 854.493 38.2966 858.492 38.2966C862.394 38.2966 865.222 37.1837 866.978 34.958C868.734 32.6877 869.612 28.993 869.612 23.8738C869.612 18.2204 868.734 14.1918 866.978 11.7881C865.271 9.33974 862.418 8.11558 858.419 8.11558Z" fill="black"/>
<path d="M417.176 68.9043C419.584 68.9043 421.977 69.3701 424.356 70.3016L423.387 75.2558L422.506 75.5946C421.507 74.9171 420.465 74.3807 419.378 73.9855C418.321 73.5903 417.352 73.3927 416.471 73.3927C415.297 73.3927 414.357 73.7032 413.652 74.3243C412.947 74.9171 412.595 75.6087 412.595 76.3991C412.595 77.2177 412.977 77.9093 413.74 78.4739C414.533 79.0385 415.766 79.7019 417.44 80.464C419.055 81.1698 420.362 81.8331 421.36 82.4542C422.388 83.047 423.254 83.8374 423.959 84.8254C424.693 85.8134 425.06 87.0273 425.06 88.4669C425.06 90.0195 424.62 91.4451 423.739 92.7436C422.858 94.0139 421.61 95.0301 419.995 95.7923C418.38 96.5263 416.515 96.8932 414.401 96.8932C411.611 96.8932 408.807 96.3146 405.988 95.1572L406.825 89.8219L407.485 89.4832C408.66 90.4712 409.937 91.2334 411.318 91.7697C412.727 92.2778 413.975 92.5319 415.062 92.5319C416.354 92.5319 417.352 92.2355 418.057 91.6427C418.791 91.0216 419.158 90.2877 419.158 89.4408C419.158 88.5375 418.762 87.8035 417.969 87.239C417.205 86.6744 415.957 85.9969 414.225 85.2065C412.639 84.529 411.347 83.8938 410.349 83.301C409.35 82.7082 408.499 81.9178 407.794 80.9298C407.089 79.9418 406.737 78.7421 406.737 77.3306C406.737 75.7498 407.177 74.3243 408.058 73.054C408.939 71.7554 410.172 70.7392 411.758 70.0052C413.344 69.2713 415.15 68.9043 417.176 68.9043Z" fill="#174483"/>
<path d="M441.228 68.862C445.222 68.862 448.29 70.0335 450.434 72.3765C452.607 74.6912 453.693 77.994 453.693 82.2848C453.693 86.9708 452.519 90.5841 450.17 93.1247C447.82 95.6653 444.502 96.9356 440.215 96.9356C436.251 96.9356 433.182 95.75 431.009 93.3787C428.865 90.9793 427.793 87.5918 427.793 83.2164C427.793 78.615 428.953 75.0723 431.273 72.5882C433.622 70.104 436.941 68.862 441.228 68.862ZM440.699 73.4774C438.35 73.4774 436.647 74.1831 435.59 75.5946C434.533 77.006 434.004 79.3067 434.004 82.4965C434.004 86.138 434.518 88.7351 435.546 90.2877C436.603 91.8403 438.335 92.6166 440.743 92.6166C443.093 92.6166 444.796 91.9109 445.853 90.4994C446.91 89.0597 447.439 86.7167 447.439 83.4704C447.439 79.8853 446.91 77.3306 445.853 75.8063C444.825 74.2537 443.107 73.4774 440.699 73.4774Z" fill="#174483"/>
<path d="M464.075 73.8161L463.943 81.1839L467.907 81.2262L472.709 81.0992L473.105 81.5226L472.665 85.7993L467.423 85.6723L463.855 85.7146L463.811 87.8741L464.075 96.5122H458.085L458.393 88.3822L458.085 69.2431H474.955L475.307 69.7088L474.867 74.0279L468.128 73.7738L464.075 73.8161Z" fill="#174483"/>
<path d="M497.481 69.7088L497.129 73.9855L491.799 73.7315H490.037L489.817 87.8741L490.081 96.5122H484.09L484.399 88.3822L484.179 73.7315H482.417L476.999 73.9855L476.602 73.5197L476.999 69.2431H497.129L497.481 69.7088Z" fill="#174483"/>
<path d="M528.311 96.5122H522.056L517.828 83.4704H517.431L513.159 96.5122H506.86L498.931 69.2431H504.79L505.23 72.5882L510.252 90.5841H510.648L515.449 75.891L513.423 69.2431H519.502L520.162 73.181L525.272 90.5841H525.668L531.394 72.9693L532.099 69.2431H537.649L528.311 96.5122Z" fill="#174483"/>
<path d="M562.188 96.5122H556.109L555.405 92.9553L554.656 90.4147L549.106 90.2877L544.216 90.4147L543.468 92.6589L542.719 96.5122H536.816L546.419 69.2431H553.511L562.188 96.5122ZM553.378 85.9687L550.031 74.6207H549.634L545.758 85.9687L549.546 86.0534L553.378 85.9687Z" fill="#174483"/>
<path d="M581.199 85.6723C583.49 89.1726 585.766 92.3343 588.027 95.1572L587.939 95.7923C586.03 96.4416 584.077 96.8227 582.08 96.9356L581.464 96.4698C579.349 92.9694 577.631 89.9207 576.31 87.3237H572.037V87.8741L572.302 96.5122H566.311L566.62 88.3822L566.311 69.2431L577.191 69.2007C580.157 69.2007 582.447 69.9064 584.062 71.3179C585.677 72.7011 586.485 74.6912 586.485 77.2883C586.485 79.0385 586.015 80.6475 585.075 82.1154C584.165 83.5551 582.873 84.7407 581.199 85.6723ZM572.125 82.8776L576.486 83.047C578.982 82.2283 580.23 80.4923 580.23 77.8388C580.23 76.3991 579.819 75.3264 578.997 74.6207C578.204 73.8867 576.971 73.4915 575.297 73.435L572.302 73.6044L572.125 82.8776Z" fill="#174483"/>
<path d="M610.132 91.7697L610.484 92.2355L610.088 96.5122H592.292L592.601 88.3822L592.292 69.2431H610.264L610.616 69.7088L610.176 73.9855L603.392 73.7738L598.283 73.8161L598.151 80.3794L603.04 80.464L607.665 80.337L608.017 80.7604L607.621 85.0371L602.6 84.9101L598.063 84.9524L598.019 87.8741L598.151 91.9814L603.128 92.0238L610.132 91.7697Z" fill="#174483"/>
<path d="M639.21 91.7697L639.562 92.2355L639.166 96.5122H621.371L621.679 88.3822L621.371 69.2431H639.342L639.695 69.7088L639.254 73.9855L632.471 73.7738L627.361 73.8161L627.229 80.3794L632.118 80.464L636.743 80.337L637.096 80.7604L636.699 85.0371L631.678 84.9101L627.141 84.9524L627.097 87.8741L627.229 91.9814L632.206 92.0238L639.21 91.7697Z" fill="#174483"/>
<path d="M667.215 88.0858L667.435 96.5122H661.004L649.42 78.0505H649.067L649.023 87.1119L649.2 96.5122H643.782L644.09 88.4669L643.826 69.2431H650.213L661.797 87.7047H662.194L662.061 69.4971L667.567 69.1584L667.215 88.0858Z" fill="#174483"/>
<path d="M686.619 68.9043C689.702 68.9043 692.477 69.4548 694.944 70.5557L693.667 75.7216L693.094 75.8063C691.655 75.0159 690.363 74.4513 689.218 74.1125C688.102 73.7456 686.898 73.5621 685.606 73.5621C682.992 73.5621 681.084 74.3101 679.88 75.8063C678.676 77.3024 678.074 79.7583 678.074 83.174C678.074 85.4323 678.323 87.2249 678.823 88.5516C679.351 89.8784 680.159 90.8523 681.245 91.4733C682.332 92.0661 683.771 92.3625 685.562 92.3625C686.179 92.3625 686.751 92.3202 687.28 92.2355C687.838 92.1508 688.513 91.9955 689.306 91.7697L689.394 89.4408L689.306 85.1218L694.812 84.7407L694.68 88.5516L694.812 95.1995C691.288 96.3287 688.043 96.8932 685.077 96.8932C680.673 96.8932 677.354 95.7359 675.123 93.4211C672.92 91.1063 671.819 87.7894 671.819 83.4704C671.819 78.7562 673.096 75.157 675.651 72.6729C678.235 70.1605 681.891 68.9043 686.619 68.9043Z" fill="#174483"/>
<path d="M706.073 87.8741L706.337 96.5122H700.347L700.655 88.3822L700.347 69.2431H706.425L706.073 87.8741Z" fill="#174483"/>
<path d="M736.771 88.0858L736.991 96.5122H730.56L718.975 78.0505H718.623L718.579 87.1119L718.755 96.5122H713.337L713.646 88.4669L713.381 69.2431H719.768L731.353 87.7047H731.749L731.617 69.4971L737.123 69.1584L736.771 88.0858Z" fill="#174483"/>
<path d="M761.803 91.7697L762.156 92.2355L761.759 96.5122H743.964L744.273 88.3822L743.964 69.2431H761.936L762.288 69.7088L761.848 73.9855L755.064 73.7738L749.955 73.8161L749.823 80.3794L754.712 80.464L759.337 80.337L759.689 80.7604L759.293 85.0371L754.271 84.9101L749.734 84.9524L749.69 87.8741L749.823 91.9814L754.8 92.0238L761.803 91.7697Z" fill="#174483"/>
<path d="M784.214 91.7697L784.567 92.2355L784.17 96.5122H766.375L766.684 88.3822L766.375 69.2431H784.347L784.699 69.7088L784.259 73.9855L777.475 73.7738L772.366 73.8161L772.233 80.3794L777.123 80.464L781.748 80.337L782.1 80.7604L781.704 85.0371L776.682 84.9101L772.145 84.9524L772.101 87.8741L772.233 91.9814L777.211 92.0238L784.214 91.7697Z" fill="#174483"/>
<path d="M803.674 85.6723C805.965 89.1726 808.24 92.3343 810.502 95.1572L810.414 95.7923C808.505 96.4416 806.552 96.8227 804.555 96.9356L803.938 96.4698C801.824 92.9694 800.106 89.9207 798.785 87.3237H794.512V87.8741L794.777 96.5122H788.786L789.094 88.3822L788.786 69.2431L799.666 69.2007C802.632 69.2007 804.922 69.9064 806.537 71.3179C808.152 72.7011 808.96 74.6912 808.96 77.2883C808.96 79.0385 808.49 80.6475 807.55 82.1154C806.64 83.5551 805.348 84.7407 803.674 85.6723ZM794.6 82.8776L798.961 83.047C801.457 82.2283 802.705 80.4923 802.705 77.8388C802.705 76.3991 802.294 75.3264 801.472 74.6207C800.679 73.8867 799.446 73.4915 797.772 73.435L794.777 73.6044L794.6 82.8776Z" fill="#174483"/>
<path d="M820.493 87.8741L820.758 96.5122H814.767L815.076 88.3822L814.767 69.2431H820.846L820.493 87.8741Z" fill="#174483"/>
<path d="M851.191 88.0858L851.412 96.5122H844.981L833.396 78.0505H833.044L833 87.1119L833.176 96.5122H827.758L828.066 88.4669L827.802 69.2431H834.189L845.773 87.7047H846.17L846.038 69.4971L851.544 69.1584L851.191 88.0858Z" fill="#174483"/>
<path d="M870.595 68.9043C873.679 68.9043 876.454 69.4548 878.92 70.5557L877.643 75.7216L877.07 75.8063C875.631 75.0159 874.339 74.4513 873.194 74.1125C872.078 73.7456 870.874 73.5621 869.582 73.5621C866.969 73.5621 865.06 74.3101 863.856 75.8063C862.652 77.3024 862.05 79.7583 862.05 83.174C862.05 85.4323 862.3 87.2249 862.799 88.5516C863.327 89.8784 864.135 90.8523 865.221 91.4733C866.308 92.0661 867.747 92.3625 869.538 92.3625C870.155 92.3625 870.727 92.3202 871.256 92.2355C871.814 92.1508 872.489 91.9955 873.282 91.7697L873.37 89.4408L873.282 85.1218L878.788 84.7407L878.656 88.5516L878.788 95.1995C875.264 96.3287 872.019 96.8932 869.054 96.8932C864.649 96.8932 861.331 95.7359 859.099 93.4211C856.896 91.1063 855.795 87.7894 855.795 83.4704C855.795 78.7562 857.073 75.157 859.627 72.6729C862.212 70.1605 865.868 68.9043 870.595 68.9043Z" fill="#174483"/>
<path d="M436.611 119.61C443.202 119.61 449.752 120.94 456.263 123.599L453.61 137.742L451.199 138.71C448.466 136.775 445.613 135.244 442.639 134.116C439.746 132.988 437.093 132.424 434.682 132.424C431.467 132.424 428.895 133.31 426.966 135.083C425.037 136.775 424.072 138.75 424.072 141.006C424.072 143.343 425.117 145.318 427.207 146.929C429.377 148.541 432.753 150.435 437.334 152.611C441.755 154.625 445.332 156.519 448.065 158.292C450.878 159.984 453.249 162.241 455.178 165.061C457.187 167.882 458.192 171.347 458.192 175.457C458.192 179.889 456.986 183.959 454.575 187.666C452.164 191.292 448.748 194.194 444.327 196.369C439.906 198.465 434.803 199.512 429.015 199.512C421.38 199.512 413.704 197.86 405.988 194.556L408.279 179.325L410.087 178.358C413.302 181.179 416.798 183.355 420.576 184.886C424.434 186.336 427.85 187.062 430.824 187.062C434.36 187.062 437.093 186.215 439.022 184.523C441.032 182.75 442.036 180.655 442.036 178.237C442.036 175.659 440.951 173.563 438.781 171.952C436.691 170.34 433.275 168.406 428.533 166.149C424.193 164.215 420.656 162.402 417.924 160.71C415.191 159.017 412.86 156.761 410.931 153.94C409.002 151.12 408.037 147.695 408.037 143.666C408.037 139.153 409.243 135.083 411.654 131.457C414.066 127.75 417.441 124.849 421.782 122.753C426.122 120.658 431.065 119.61 436.611 119.61Z" fill="black"/>
<path d="M519.722 121.907L518.757 134.116L504.169 133.391H499.346L498.744 173.765L499.467 198.424H483.07L483.914 175.215L483.312 133.391H478.489L463.66 134.116L462.575 132.786L463.66 120.577H518.757L519.722 121.907Z" fill="black"/>
<path d="M590.484 160.105L590.364 170.38C590.444 179.648 587.751 186.82 582.286 191.897C576.82 196.974 568.984 199.512 558.776 199.512C548.97 199.512 541.495 197.054 536.351 192.139C531.207 187.223 528.756 180.171 528.997 170.985L529.117 159.743L528.756 120.577H545.152L544.308 168.809C544.228 174.692 545.474 179.043 548.046 181.864C550.618 184.684 554.516 186.095 559.74 186.095C570.189 186.095 575.374 180.615 575.293 169.655L574.449 120.577H591.087L590.484 160.105Z" fill="black"/>
<path d="M638.914 120.094C650.167 120.094 658.807 123.237 664.835 129.523C670.863 135.808 673.878 144.834 673.878 156.6C673.878 170.38 670.502 180.937 663.75 188.27C656.999 195.604 647.354 199.271 634.815 199.271C631.037 199.271 626.496 199.19 621.191 199.029C615.967 198.868 611.466 198.666 607.688 198.424L608.532 175.215L607.688 120.577L638.914 120.094ZM637.708 186.578C650.488 186.578 656.878 177.834 656.878 160.347C656.878 150.838 655.311 143.948 652.176 139.677C649.122 135.325 644.299 133.149 637.708 133.149C633.449 133.149 628.907 133.35 624.085 133.753L623.361 173.765L623.723 185.732C629.349 186.296 634.011 186.578 637.708 186.578Z" fill="black"/>
<path d="M734.93 184.886L735.894 186.215L734.809 198.424H686.102L686.946 175.215L686.102 120.577H735.292L736.256 121.907L735.05 134.116L716.484 133.512L702.498 133.633L702.137 152.369L715.519 152.611L728.178 152.248L729.143 153.457L728.058 165.666L714.313 165.303L701.895 165.424L701.775 173.765L702.137 185.49L715.76 185.611L734.93 184.886Z" fill="black"/>
<path d="M811.583 174.369L812.186 198.424H794.583L762.875 145.721H761.911L761.79 171.589L762.272 198.424H747.443L748.287 175.457L747.564 120.577H765.045L796.754 173.281H797.839L797.477 121.303L812.547 120.336L811.583 174.369Z" fill="black"/>
<path d="M880 121.907L879.036 134.116L864.447 133.391H859.625L859.022 173.765L859.745 198.424H843.349L844.193 175.215L843.59 133.391H838.767L823.938 134.116L822.853 132.786L823.938 120.577H879.036L880 121.907Z" fill="black"/>
</svg>
