<svg width="520" height="387" viewBox="0 0 520 387" fill="none" xmlns="http://www.w3.org/2000/svg">
<g clip-path="url(#clip0)">
<path d="M282.925 39.4697C289.705 39.4697 295.202 33.9787 295.202 27.2052C295.202 20.4318 289.705 14.9408 282.925 14.9408C276.144 14.9408 270.647 20.4318 270.647 27.2052C270.647 33.9787 276.144 39.4697 282.925 39.4697Z" fill="#174483"/>
<path d="M281.708 31.8838C281.432 31.8842 281.163 31.795 280.942 31.6294L280.928 31.6192L278.043 29.4143C277.909 29.312 277.797 29.1843 277.713 29.0387C277.628 28.8931 277.574 28.7323 277.552 28.5655C277.53 28.3988 277.541 28.2293 277.584 28.0668C277.628 27.9043 277.703 27.752 277.805 27.6185C277.908 27.485 278.035 27.3729 278.181 27.2888C278.327 27.2046 278.488 27.1499 278.655 27.1279C278.822 27.1059 278.991 27.1169 279.154 27.1604C279.317 27.2038 279.469 27.2789 279.603 27.3812L281.472 28.8129L285.888 23.0574C285.991 22.924 286.118 22.812 286.264 22.7278C286.41 22.6437 286.571 22.5891 286.738 22.5671C286.904 22.545 287.074 22.5561 287.237 22.5995C287.399 22.643 287.552 22.718 287.685 22.8203L287.686 22.8206L287.658 22.8586L287.686 22.8206C287.956 23.0275 288.132 23.3327 288.177 23.6693C288.221 24.0059 288.13 24.3464 287.923 24.616L282.729 31.3827C282.609 31.5386 282.454 31.6648 282.277 31.7514C282.1 31.838 281.906 31.8828 281.709 31.8822L281.708 31.8838Z" fill="white"/>
<path d="M282.925 122.381C289.705 122.381 295.202 116.89 295.202 110.117C295.202 103.343 289.705 97.8522 282.925 97.8522C276.144 97.8522 270.647 103.343 270.647 110.117C270.647 116.89 276.144 122.381 282.925 122.381Z" fill="#174483"/>
<path d="M281.708 114.795C281.432 114.796 281.163 114.706 280.942 114.541L280.928 114.531L278.043 112.326C277.909 112.223 277.797 112.096 277.713 111.95C277.628 111.804 277.574 111.644 277.552 111.477C277.53 111.31 277.541 111.141 277.584 110.978C277.628 110.816 277.703 110.663 277.805 110.53C277.908 110.396 278.035 110.284 278.181 110.2C278.327 110.116 278.488 110.061 278.655 110.039C278.822 110.017 278.991 110.028 279.154 110.072C279.317 110.115 279.469 110.19 279.603 110.293L281.472 111.724L285.888 105.969C285.991 105.835 286.118 105.723 286.264 105.639C286.41 105.555 286.571 105.5 286.738 105.478C286.904 105.456 287.074 105.467 287.237 105.511C287.399 105.554 287.552 105.629 287.685 105.732L287.686 105.732L287.658 105.77L287.686 105.732C287.956 105.939 288.132 106.244 288.177 106.581C288.221 106.917 288.13 107.258 287.923 107.527L282.729 114.294C282.609 114.45 282.454 114.576 282.277 114.663C282.1 114.749 281.906 114.794 281.709 114.794L281.708 114.795Z" fill="white"/>
<path d="M313.758 238.991C313.718 237.975 313.902 236.961 314.297 236.023C314.691 235.085 315.287 234.245 316.042 233.561C316.796 232.878 317.692 232.368 318.665 232.068C319.639 231.768 320.666 231.685 321.675 231.824L332.92 209.786L339.274 220.964L327.621 240.177C327.275 241.855 326.324 243.348 324.949 244.372C323.574 245.396 321.871 245.882 320.162 245.735C318.454 245.589 316.858 244.822 315.678 243.579C314.497 242.336 313.814 240.704 313.758 238.991L313.758 238.991Z" fill="#FFB7B7"/>
<path d="M366.182 377.761L357.358 377.76L353.16 343.76L366.184 343.76L366.182 377.761Z" fill="#FFB7B7"/>
<path d="M368.432 386.306L339.979 386.305V385.945C339.979 383.011 341.146 380.197 343.223 378.123C345.299 376.048 348.116 374.882 351.054 374.882H351.054L368.433 374.883L368.432 386.306Z" fill="#2F2E41"/>
<path d="M414.02 377.761L405.195 377.76L400.997 343.76L414.021 343.76L414.02 377.761Z" fill="#FFB7B7"/>
<path d="M416.27 386.306L387.816 386.305V385.945C387.816 383.011 388.983 380.197 391.06 378.123C393.137 376.048 395.954 374.882 398.891 374.882H398.892L416.27 374.883L416.27 386.306Z" fill="#2F2E41"/>
<path d="M327.312 219.811L323.46 226.225C323.46 226.225 329.88 226.225 331.165 235.845L336.301 229.432L327.312 219.811Z" fill="#E5E5E5"/>
<path d="M394.728 206.343C394.728 206.343 405.001 233.28 406.927 249.956C408.853 266.631 412.064 310.885 412.064 310.885L418.484 367.967L400.507 370.532L392.802 312.809L375.467 255.728L371.614 312.809L368.404 364.76L351.711 365.401L350.426 311.526L343.364 242.901L347.216 210.191L394.728 206.343Z" fill="#2F2E41"/>
<path d="M365.836 124.962C374.7 124.962 381.887 117.783 381.887 108.928C381.887 100.072 374.7 92.8934 365.836 92.8934C356.971 92.8934 349.784 100.072 349.784 108.928C349.784 117.783 356.971 124.962 365.836 124.962Z" fill="#FFB7B7"/>
<path d="M382.208 124.569L388.628 129.058L396.975 213.077L344.969 214.36L352.032 155.996L358.452 139.32L363.086 133.2L382.208 124.569Z" fill="#A00C34"/>
<path d="M383.492 184.857L385.457 126.84C385.457 126.84 389.271 127.134 390.555 129.058C391.839 130.982 413.027 134.831 413.027 134.831L409.174 194.478C409.174 194.478 425.226 241.938 419.447 244.504C413.669 247.069 403.396 246.428 403.396 246.428L383.492 184.857Z" fill="#2F2E41"/>
<path d="M352.352 177.481L359.164 138.38L344.006 148.62L347.858 176.84L344.648 196.081C344.648 196.081 332.449 249.314 336.301 251.238C340.153 253.162 344.648 251.238 344.648 251.238L352.352 197.364V177.481Z" fill="#2F2E41"/>
<path d="M348.5 147.337L344.006 148.62L342.08 174.275L338.869 196.722L323.46 224.301C323.46 224.301 331.165 219.17 334.375 233.921L351.345 204.408L348.5 147.337Z" fill="#2F2E41"/>
<path d="M379.273 93.6506L382.3 92.4401C382.3 92.4401 375.971 85.4798 367.166 86.0851L369.642 83.3615C369.642 83.3615 363.588 80.9406 358.085 87.2956C355.192 90.6362 351.845 94.563 349.758 98.9865H346.517L347.869 101.962L343.134 104.938L347.994 104.403C347.705 106.033 347.66 107.697 347.863 109.339C348.071 110.982 348.91 112.48 350.204 113.517C350.204 113.517 353.957 105.755 353.957 104.545V107.571C353.957 107.571 356.984 104.847 356.984 103.032L358.635 105.15L359.461 101.821L369.642 105.15L367.991 102.426L374.32 103.334L371.843 100.006L381.642 113.751C381.642 113.751 387.253 98.1898 379.273 93.6506Z" fill="#2F2E41"/>
<path d="M383.424 233.732C383.583 232.726 383.96 231.768 384.529 230.924C385.098 230.081 385.846 229.372 386.719 228.848C387.592 228.324 388.57 227.997 389.583 227.892C390.596 227.786 391.62 227.903 392.583 228.236L407.897 208.798L411.957 220.995L396.793 237.583C396.127 239.162 394.904 240.442 393.356 241.18C391.809 241.918 390.044 242.064 388.396 241.589C386.748 241.114 385.332 240.052 384.415 238.604C383.499 237.156 383.146 235.422 383.424 233.732V233.732Z" fill="#FFB7B7"/>
<path d="M409.496 226.866L403.717 233.921L396.013 220.453L399.222 214.681L409.496 226.866Z" fill="#E5E5E5"/>
<path d="M408.211 137.075L413.348 134.51C413.348 134.51 417.2 139.641 417.842 144.13C418.484 148.62 421.694 154.392 421.694 157.599C421.694 160.806 430.683 190.95 430.683 190.95L410.137 232.639C410.137 232.639 405.643 217.246 396.012 215.963L412.064 193.515L403.075 177.481L408.211 137.075Z" fill="#2F2E41"/>
<path d="M519.352 386.701H272.295C272.123 386.701 271.958 386.633 271.836 386.512C271.715 386.39 271.646 386.225 271.646 386.053C271.646 385.882 271.715 385.717 271.836 385.595C271.958 385.474 272.123 385.406 272.295 385.406H519.352C519.524 385.406 519.689 385.474 519.81 385.595C519.932 385.717 520 385.882 520 386.053C520 386.225 519.932 386.39 519.81 386.512C519.689 386.633 519.524 386.701 519.352 386.701Z" fill="#CBCBCB"/>
<path d="M236.682 137.322H0V82.9114H236.682V137.322Z" fill="white"/>
<path d="M34.1587 100.902C33.5478 100.903 32.9622 101.146 32.5305 101.578C32.0989 102.01 31.8564 102.595 31.8564 103.206C31.8564 103.816 32.0989 104.401 32.5305 104.833C32.9622 105.265 33.5478 105.508 34.1587 105.509H202.533C203.144 105.508 203.729 105.265 204.161 104.833C204.593 104.401 204.835 103.816 204.835 103.206C204.835 102.595 204.593 102.01 204.161 101.578C203.729 101.146 203.144 100.903 202.533 100.902H34.1587Z" fill="#174483"/>
<path d="M34.1586 114.724C33.8558 114.723 33.5558 114.782 33.2758 114.897C32.9957 115.013 32.7411 115.182 32.5265 115.395C32.312 115.609 32.1416 115.862 32.0251 116.142C31.9086 116.421 31.8483 116.72 31.8477 117.023C31.847 117.325 31.906 117.625 32.0213 117.905C32.1367 118.184 32.306 118.439 32.5197 118.653C32.7334 118.867 32.9872 119.038 33.2668 119.154C33.5463 119.27 33.8461 119.331 34.1489 119.331H140.597C140.9 119.332 141.2 119.273 141.481 119.157C141.761 119.041 142.015 118.872 142.23 118.658C142.445 118.444 142.615 118.19 142.731 117.91C142.847 117.63 142.907 117.33 142.907 117.028C142.907 116.725 142.847 116.425 142.731 116.145C142.615 115.865 142.445 115.611 142.23 115.397C142.015 115.183 141.761 115.014 141.481 114.898C141.2 114.783 140.9 114.723 140.597 114.724H34.1586Z" fill="#174483"/>
<path d="M236.682 137.322H0V82.9114H236.682V137.322ZM3.89066 133.435H232.791V86.7978H3.89066V133.435Z" fill="#E5E5E5"/>
<path d="M236.682 220.233H0V165.823H236.682V220.233Z" fill="white"/>
<path d="M34.1587 183.813C33.5478 183.814 32.9622 184.058 32.5305 184.49C32.0989 184.921 31.8564 185.507 31.8564 186.117C31.8564 186.727 32.0989 187.313 32.5305 187.745C32.9622 188.177 33.5478 188.42 34.1587 188.421H202.533C203.144 188.42 203.729 188.177 204.161 187.745C204.593 187.313 204.835 186.727 204.835 186.117C204.835 185.507 204.593 184.921 204.161 184.49C203.729 184.058 203.144 183.814 202.533 183.813H34.1587Z" fill="#E6E6E6"/>
<path d="M34.1586 197.635C33.8558 197.635 33.5558 197.694 33.2758 197.809C32.9957 197.924 32.7411 198.093 32.5265 198.307C32.312 198.52 32.1416 198.774 32.0251 199.053C31.9086 199.332 31.8483 199.632 31.8477 199.934C31.847 200.237 31.906 200.536 32.0213 200.816C32.1367 201.096 32.306 201.35 32.5197 201.564C32.7334 201.779 32.9872 201.949 33.2668 202.065C33.5463 202.182 33.8461 202.242 34.1489 202.243H140.597C140.9 202.243 141.2 202.184 141.481 202.068C141.761 201.953 142.015 201.783 142.23 201.569C142.445 201.355 142.615 201.101 142.731 200.821C142.847 200.542 142.907 200.242 142.907 199.939C142.907 199.636 142.847 199.336 142.731 199.056C142.615 198.777 142.445 198.523 142.23 198.309C142.015 198.095 141.761 197.925 141.481 197.809C141.2 197.694 140.9 197.635 140.597 197.635H34.1586Z" fill="#E6E6E6"/>
<path d="M236.682 220.233H0V165.823H236.682V220.233ZM3.89066 216.347H232.791V169.709H3.89066V216.347Z" fill="#E5E5E5"/>
<path d="M238.627 54.4106H1.94531V0H238.627V54.4106Z" fill="white"/>
<path d="M36.104 17.9907C35.4931 17.9917 34.9075 18.2349 34.4758 18.6668C34.0442 19.0987 33.8018 19.6841 33.8018 20.2944C33.8018 20.9047 34.0442 21.49 34.4758 21.9219C34.9075 22.3538 35.4931 22.597 36.104 22.598H204.478C205.089 22.597 205.675 22.3538 206.106 21.9219C206.538 21.49 206.781 20.9047 206.781 20.2944C206.781 19.6841 206.538 19.0987 206.106 18.6668C205.675 18.2349 205.089 17.9917 204.478 17.9907H36.104Z" fill="#174483"/>
<path d="M36.104 31.8126C35.4923 31.8113 34.9053 32.0528 34.4719 32.4839C34.0385 32.915 33.7943 33.5004 33.793 34.1114C33.7917 34.7224 34.0334 35.3088 34.465 35.7418C34.8966 36.1747 35.4826 36.4186 36.0942 36.4199H142.542C142.845 36.4204 143.146 36.3612 143.426 36.2457C143.706 36.1301 143.961 35.9605 144.175 35.7466C144.39 35.5326 144.56 35.2785 144.676 34.9987C144.792 34.719 144.852 34.4191 144.852 34.1163C144.852 33.8134 144.792 33.5136 144.676 33.2338C144.56 32.9541 144.39 32.6999 144.175 32.486C143.961 32.272 143.706 32.1024 143.426 31.9869C143.146 31.8713 142.845 31.8121 142.542 31.8126H36.104Z" fill="#174483"/>
<path d="M238.627 54.4106H1.94531V0H238.627V54.4106ZM5.83597 50.5241H234.736V3.88647H5.83597V50.5241Z" fill="#E5E5E5"/>
<path d="M479.36 387V340.142C479.36 340.142 497.641 373.362 479.36 387Z" fill="#F1F1F1"/>
<path d="M480.489 386.992L445.934 355.303C445.934 355.303 482.795 364.317 480.489 386.992Z" fill="#F1F1F1"/>
<path d="M314.05 237.58C320.831 237.58 326.328 232.089 326.328 225.315C326.328 218.542 320.831 213.051 314.05 213.051C307.269 213.051 301.772 218.542 301.772 225.315C301.772 232.089 307.269 237.58 314.05 237.58Z" fill="#174483"/>
<path d="M312.833 229.994C312.557 229.994 312.288 229.905 312.067 229.739L312.053 229.729L309.168 227.524C309.034 227.422 308.922 227.294 308.837 227.149C308.753 227.003 308.698 226.842 308.676 226.675C308.654 226.509 308.665 226.339 308.709 226.176C308.752 226.014 308.827 225.861 308.93 225.728C309.032 225.594 309.16 225.482 309.306 225.398C309.452 225.314 309.613 225.259 309.78 225.237C309.947 225.215 310.117 225.226 310.279 225.27C310.442 225.314 310.595 225.389 310.728 225.491L312.597 226.923L317.014 221.167C317.116 221.034 317.244 220.922 317.389 220.838C317.535 220.754 317.696 220.699 317.863 220.677C318.03 220.655 318.199 220.666 318.362 220.709C318.525 220.753 318.677 220.828 318.811 220.93L318.811 220.931L318.784 220.969L318.812 220.931C319.081 221.137 319.258 221.443 319.302 221.779C319.346 222.116 319.255 222.456 319.049 222.726L313.854 229.493C313.734 229.649 313.579 229.775 313.403 229.861C313.226 229.948 313.031 229.993 312.834 229.992L312.833 229.994Z" fill="white"/>
</g>
<defs>
<clipPath id="clip0">
<rect width="520" height="387" fill="white"/>
</clipPath>
</defs>
</svg>
